<?xml version="1.0" encoding="utf-8"?>
<svg version="1.1" id="Layer_1" xmlns="http://www.w3.org/2000/svg" xmlns:xlink="http://www.w3.org/1999/xlink" x="0px" y="0px"
	 viewBox="0 0 160 57" style="enable-background:new 0 0 160 57;" xml:space="preserve">
<style type="text/css">
	.st0{fill:#DF6F1D;}
</style>
<g>
	<path d="M70.7,22.7l-6.2-10.8v10.8h-2.8V7.8h3.2L71,18.6V7.8h2.8v14.9H70.7z"/>
	<path d="M83.5,23c-4.4,0-7.9-3.4-7.9-7.7c0-4.4,3.4-7.7,7.9-7.7c4.3,0,7.7,3.5,7.7,7.7C91.1,19.6,87.8,23,83.5,23z M83.4,10.2
		c-2.9,0-5.1,2.2-5.1,5.1c0,2.8,2.2,5.1,5.1,5.1c2.8,0,4.9-2.2,4.9-5C88.4,12.4,86.2,10.2,83.4,10.2z"/>
	<path d="M99.7,22.7L95.8,17v5.7H93V7.8h4.3c2,0,3.1,0.3,4.1,1.1c1,0.9,1.6,2.2,1.6,3.7c0,2.3-1.2,4-3.9,4.6l4,5.5H99.7z M97,10.4
		h-1.2v4.5h1.4c2.1,0,3.1-0.7,3.1-2.3C100.2,11.3,99.7,10.4,97,10.4z"/>
	<path d="M109,10.4v12.3h-2.8V10.4h-2.8V7.8h8.3v2.6H109z"/>
	<path d="M121,22.7v-6.3h-5.3v6.3h-2.8V7.8h2.8v6h5.3v-6h2.8v14.9H121z"/>
	<path d="M126.3,22.7V7.8h8v2.6h-5.3v3.5h5v2.6h-5v3.5h5.3v2.6H126.3z"/>
	<path d="M143.2,22.7l-3.9-5.7v5.7h-2.8V7.8h4.3c2,0,3.1,0.3,4.1,1.1c1,0.9,1.6,2.2,1.6,3.7c0,2.3-1.2,4-3.9,4.6l4,5.5H143.2z
		 M140.5,10.4h-1.2v4.5h1.4c2.1,0,3.1-0.7,3.1-2.3C143.7,11.3,143.1,10.4,140.5,10.4z"/>
</g>
<g>
	<path d="M156.9,22.7l-6.2-10.8v10.8h-2.8V7.8h3.2l6.2,10.9V7.8h2.8v14.9H156.9z"/>
</g>
<g>
	<path d="M65.7,28v11.7h-2.6V28h-2.6v-2.5h7.9V28H65.7z"/>
</g>
<g>
	<path d="M69.8,39.7V25.5h7.7V28h-5v3.4h4.8v2.5h-4.8v3.3h5v2.5H69.8z"/>
</g>
<g>
	<path d="M85.5,39.7l-3.7-5.5v5.5h-2.6V25.5h4.1c1.9,0,3,0.3,3.9,1.1c1,0.8,1.5,2.1,1.5,3.5c0,2.2-1.2,3.8-3.7,4.4l3.9,5.3H85.5z
		 M83,28h-1.2v4.3h1.3c2,0,2.9-0.7,2.9-2.2C86,28.8,85.5,28,83,28z"/>
	<path d="M96.5,39.7l-3.7-5.5v5.5h-2.6V25.5h4.1c1.9,0,3,0.3,3.9,1.1c1,0.8,1.5,2.1,1.5,3.5c0,2.2-1.2,3.8-3.7,4.4l3.9,5.3H96.5z
		 M93.9,28h-1.2v4.3H94c2,0,2.9-0.7,2.9-2.2C96.9,28.8,96.4,28,93.9,28z"/>
	<path d="M101,39.7V25.5h2.6v14.2H101z"/>
	<path d="M110.2,28v11.7h-2.6V28h-2.6v-2.5h7.9V28H110.2z"/>
</g>
<g>
	<path d="M120.2,40c-4.2,0-7.5-3.3-7.5-7.4c0-4.2,3.3-7.4,7.5-7.4c4.1,0,7.3,3.3,7.3,7.4C127.6,36.7,124.4,40,120.2,40z M120.2,27.8
		c-2.7,0-4.8,2.1-4.8,4.8c0,2.7,2.1,4.8,4.8,4.8c2.7,0,4.7-2.1,4.7-4.8C124.9,29.9,122.9,27.8,120.2,27.8z"/>
</g>
<g>
	<path d="M135.4,39.7l-3.7-5.5v5.5H129V25.5h4.1c1.9,0,3,0.3,3.9,1.1c1,0.8,1.5,2.1,1.5,3.5c0,2.2-1.2,3.8-3.7,4.4l3.9,5.3H135.4z
		 M132.8,28h-1.2v4.3h1.3c2,0,2.9-0.7,2.9-2.2C135.8,28.8,135.3,28,132.8,28z"/>
	<path d="M145.7,34.4v5.3H143v-5.3l-4.7-9h2.9l3.2,6.6l3.1-6.6h2.9L145.7,34.4z"/>
</g>
<g>
	<path d="M65.8,51.3c-2.8,0-5-2.1-5-4.7c0-2.6,2.1-4.7,4.8-4.7c2,0,3.7,1,4.3,2.6h-1c-0.6-1.1-1.8-1.8-3.2-1.8c-2.2,0-4,1.7-4,3.9
		c0,2.2,1.8,3.9,4,3.9c1.8,0,3.4-1.3,3.7-2.7h-5.1v-0.8h6.2C70.5,49.2,68.5,51.3,65.8,51.3z"/>
	<path d="M76.5,51.3c-2.7,0-4.8-2.1-4.8-4.8c0-2.5,2.2-4.7,4.8-4.7c2.6,0,4.8,2.1,4.8,4.7C81.3,49.1,79.1,51.3,76.5,51.3z
		 M76.5,42.6c-2.1,0-3.9,1.8-3.9,3.9c0,2.2,1.8,3.9,3.9,3.9c2.1,0,3.9-1.8,3.9-3.9C80.4,44.4,78.6,42.6,76.5,42.6z"/>
	<path d="M86.1,51.1h-0.9L81.5,42h1l3.2,8l3.2-8h1L86.1,51.1z"/>
	<path d="M91,51.1V42h5v0.8h-4.1v3.3h3.9v0.8h-3.9v3.4h4.1v0.8H91z"/>
	<path d="M101.1,47.7l2.6,3.4h-1.1L99.4,47c2.6,0,3.4-0.4,3.4-2.1c0-1.5-0.9-2.1-3.1-2.1h-1.3v8.3h-0.9V42h2.3c2.9,0,3.9,1,3.9,2.9
		C103.8,46.5,102.8,47.5,101.1,47.7z"/>
	<path d="M111.4,51.1l-5.4-8v8h-0.9V42h1.2l5.1,7.6V42h0.9v9.1H111.4z"/>
	<path d="M122.8,51.1V43l-3.4,8.1h-0.8l-3.4-8.1v8.1h-0.9V42h1.4l3.3,7.8l3.3-7.8h1.4v9.1H122.8z"/>
	<path d="M125.6,51.1V42h5v0.8h-4.1v3.3h3.9v0.8h-3.9v3.4h4.1v0.8H125.6z"/>
	<path d="M138.5,51.1l-5.4-8v8h-0.9V42h1.2l5.1,7.6V42h0.9v9.1H138.5z"/>
	<path d="M143.5,42.8v8.3h-0.9v-8.3h-2.1V42h5.1v0.8H143.5z"/>
</g>
<path class="st0" d="M23.8,0.4c-2.4,0.4-4.8,4.3-3.8,7.2c1.4,4.1,4.4,10.8,8.6,10.9c4.2-0.1,7.2-6.8,8.6-10.9c1-2.9-1.4-6.7-3.8-7.2
	C31.1-0.1,27-0.1,23.8,0.4"/>
<path class="st0" d="M3.7,14.7c-1.2,2.2,0.3,6.5,3.1,7.5c4,1.4,11,3.2,13.7-0.1c2.5-3.4-0.7-10-3-13.6C16,5.9,11.6,5.5,9.7,7
	C7.8,8.6,5.3,11.9,3.7,14.7"/>
<path class="st0" d="M2.1,39.8c0.9,2.3,5.2,3.8,7.7,2.2c3.6-2.3,9.3-6.8,8.5-11c-1-4.2-8.1-5.6-12.3-6.1c-3-0.4-6.1,2.9-6,5.4
	C0,32.6,0.9,36.7,2.1,39.8"/>
<path class="st0" d="M20.3,56.6c2.4,0.7,6.2-1.7,6.5-4.8c0.4-4.3,0.6-11.7-3.1-13.6c-3.8-1.8-9.3,3-12.3,6c-2.2,2.2-1.6,6.6,0.3,8.2
	C13.5,53.9,17.2,55.7,20.3,56.6"/>
<path class="st0" d="M44.5,52.6c2-1.4,2.5-6,0.4-8.2c-3-3-8.5-7.8-12.4-6c-3.7,1.9-3.6,9.3-3.1,13.6c0.3,3.1,4.1,5.4,6.5,4.8
	C38.2,56.3,41.9,54.5,44.5,52.6"/>
<path class="st0" d="M56.5,30.8c0.2-2.5-3-5.7-6-5.4c-4.2,0.5-11.2,2-12.3,6.1c-0.8,4.2,4.9,8.7,8.4,11c2.6,1.7,6.7,0.1,7.7-2.2
	C55.4,38.1,56.3,34.1,56.5,30.8"/>
<path class="st0" d="M47.3,7.5c-1.8-1.7-6.3-1.2-7.9,1.5c-2.2,3.7-5.5,10.2-3,13.6c2.7,3.3,9.7,1.5,13.7,0.1c2.9-1,4.2-5.3,3.2-7.5
	C52.3,13,49.7,9.7,47.3,7.5"/>
<path d="M34.9,15.5c-0.3,1.8-2.7,6.6-0.8,9c2,2.6,6.9,1.1,8.8,1.3l-0.2,0.1c-1.6,0.9-6.7,2-7.3,5c-0.7,3.3,3.5,6.2,4.5,7.8l-0.2-0.1
	c-1.7-0.7-5.7-4.1-8.4-2.8c-2.9,1.4-2.6,6.6-3.2,8.5l0-0.3c-0.5-1.8-0.4-7.1-3.1-8.4c-2.9-1.5-6.7,2.1-8.4,2.8l0.2-0.2
	c1.1-1.5,5.2-4.7,4.5-7.7c-0.7-3.2-5.7-4-7.4-5l0.3,0c1.8-0.1,6.9,1.2,8.7-1.2c2-2.6-0.5-7.1-0.7-9l0.1,0.2c1.2,1.4,3.3,6.2,6.3,6.2
	c3.3,0,5.2-4.8,6.4-6.2L34.9,15.5z"/>
</svg>
